
<svg class="lirio-svg" xmlns="http://www.w3.org/2000/svg" viewBox="0 0 1500 1650">

<defs>
    <g id="petalo1">
      <path d="M300 200 C 340 230, 330 310, 250 300 C 290 280, 300 250, 270 230 Z " fill="#4B007D" stroke-linejoin="round" />
      <path d="M120 200 C 240 190, 280 120, 300 200 C 320 200, 325 225, 323 240 C 265 195, 280 270, 140 220 Z " fill="#B026FF" stroke-linejoin="round" />
    <path d="M120 210 C 220 240, 250 180, 300 200" stroke="#3B0161" stroke-width="1" stroke-linejoin="round" fill="none" />
    </g>

    <g id="petalo2">
      <path d="M250 400 C 260 450, 250 470, 190 480 C 210 470, 199 450, 250 400 Z " fill="#4B007D" stroke-linejoin="round" />
      <path d="M150 50 C 300 230, 290 310, 250 400 C 290 290, 100 110, 130 90 Z " fill="#B026FF" stroke-linejoin="round" />
    <path d="M 140 70 C 260 230, 270 360, 250 400" fill="none" stroke="#3B0161" stroke-width="1" stroke-linejoin="round" />
    </g>

    <g id="petalo3">
      <path d="M410 270 C 390 340, 230 390, 230 260 C 220 280, 340 340, 330 230 Z" fill="#4B007D" stroke-linejoin="round" />
      <path d="M120 200 C 220 210, 350 120, 400 220 C 420 240, 410 265, 410 270 C 265 185, 280 260, 140 220 Z " fill="#B026FF" stroke-linejoin="round" />
    <path d="M120 210 C 220 240, 370 160, 400 220" fill="none" stroke="#3B0161" stroke-width="1" stroke-linejoin="round" />
    </g>

    <filter id="neonTallo" x="-80%" y="-80%" width="260%" height="260%">
  <feDropShadow dx="0" dy="0" stdDeviation="4" flood-color="#32D47C" flood-opacity="1"/>
  <feDropShadow dx="0" dy="0" stdDeviation="10" flood-color="#32D47C" flood-opacity="0.9"/>
  <feDropShadow dx="0" dy="0" stdDeviation="18" flood-color="#7CFFB2" flood-opacity="0.7"/>
</filter>

<filter id="neonPetaloMorado" x="-80%" y="-80%" width="260%" height="260%">
  <feDropShadow dx="0" dy="0" stdDeviation="3" flood-color="#B026FF" flood-opacity="1"/>
  <feDropShadow dx="0" dy="0" stdDeviation="8" flood-color="#B026FF" flood-opacity="0.9"/>
  <feDropShadow dx="0" dy="0" stdDeviation="15" flood-color="#7A00CC" flood-opacity="0.7"/>
</filter>

<filter id="neonAmarillo" x="-80%" y="-80%" width="260%" height="260%">
  <feDropShadow dx="0" dy="0" stdDeviation="3" flood-color="#FCF75E" flood-opacity="1"/>
  <feDropShadow dx="0" dy="0" stdDeviation="8" flood-color="#FCF75E" flood-opacity="0.9"/>
  <feDropShadow dx="0" dy="0" stdDeviation="14" flood-color="#FFF9A8" flood-opacity="0.7"/>
</filter>

<linearGradient id="verdeTallo" x1="0" y1="0" x2="0" y2="400" gradientUnits="userSpaceOnUse">
  <stop offset="0%" stop-color="#7CFFB2" />
  <stop offset="50%" stop-color="#32D47C" />
  <stop offset="100%" stop-color="#0B5C38" />
</linearGradient>

  </defs>

  

  <path class="tallo-neon"
      d="M750 800 
      C 810 1100, 870 1300, 800 1600
      C 799 1600, 795 1600, 790 1600 
      C 790 1600, 860 1300, 720 800 Z" 
      fill="url(#verdeTallo)" 
      filter="url(#neonTallo)"
      stroke-linejoin="round" />


  
    <g id="flor5" class="flor">
    
    <g class="petalos-flor">
        <use class="petalo-neon" href="#petalo1" transform="translate(430,450) rotate(0)" filter="url(#neonPetaloMorado)"/>        
        <use class="petalo-neon" href="#petalo1" transform="translate(350,767) rotate(270)" filter="url(#neonPetaloMorado)"/>
        <use class="petalo-neon" href="#petalo1" transform="translate(320,655) rotate(300)" filter="url(#neonPetaloMorado)" />
        <use class="petalo-neon" href="#petalo1" transform="translate(495,425) rotate(315) scale(-1 1)" filter="url(#neonPetaloMorado)" />
        <use class="petalo-neon" href="#petalo1" transform="translate(790,650) rotate(60) scale(-1 1)" filter="url(#neonPetaloMorado)" />
        <use class="petalo-neon" href="#petalo1" transform="translate(730,505) rotate(20) scale(-1 1)" filter="url(#neonPetaloMorado)" />
        <ellipse cx="550" cy="650" rx="8" ry="5" fill="#3B0161" />

    </g>

    <g class="detalles-flor">
        <path d="M 550 650 C 700 600, 500 350, 450 300" stroke="#B026FF" stroke-width="1" stroke-linejoin="round" fill="none" />
        <path d="M 550 650 C 200 650, 250 550, 300 450" stroke="#B026FF" stroke-width="1" stroke-linejoin="round" fill="none" />
        <path d="M 550 650 C 600 900, 300 650, 200 500" stroke="#B026FF" stroke-width="1" stroke-linejoin="round" fill="none" />
        <path d="M 550 650 C 600 400, 300 650, 350 400" stroke="#B026FF" stroke-width="1" stroke-linejoin="round" fill="none" />


        <ellipse class="antera-neon" cx="450" cy="300" rx="8" ry="5" fill="#fcf75e" filter="url(#neonAmarillo)" />
        <ellipse class="antera-neon" cx="300" cy="450" rx="8" ry="5" fill="#fcf75e" filter="url(#neonAmarillo)" />
        <ellipse class="antera-neon" cx="200" cy="500" rx="8" ry="5" fill="#fcf75e" filter="url(#neonAmarillo)" />
        <ellipse class="antera-neon" cx="350" cy="400" rx="8" ry="5" fill="#fcf75e" filter="url(#neonAmarillo)" />
    </g>


    </g>

    <g id="flor4" class="flor">
    
    <g class="petalos-flor">
        <use class="petalo-neon" href="#petalo3" transform="translate(630,300) rotate(0)" filter="url(#neonPetaloMorado)"/>        
        <use class="petalo-neon" href="#petalo3" transform="translate(960,390) rotate(30) scale(-1 1)" filter="url(#neonPetaloMorado)"/>        
        <use class="petalo-neon" href="#petalo1" transform="translate(510,510) rotate(300)" filter="url(#neonPetaloMorado)"/>   
        <use class="petalo-neon" href="#petalo1" transform="translate(990,510) rotate(60) scale(-1 1)" filter="url(#neonPetaloMorado)"/>        
        <use class="petalo-neon" href="#petalo2" transform="translate(895,545) rotate(40) scale(-1 1)" filter="url(#neonPetaloMorado)"/>
        <use class="petalo-neon" href="#petalo2" transform="translate(590,470) rotate(350)" filter="url(#neonPetaloMorado)"/> 
        <use class="petalo-neon" href="#petalo1" transform="translate(920,350) rotate(80)" filter="url(#neonPetaloMorado)" />   
        <ellipse cx="750" cy="500" rx="8" ry="5" fill="#3B0161" />

    </g>

    <g class="detalles-flor">
        <path d="M 750 500 C 1000 450, 750 350, 800 300" stroke="#B026FF" stroke-width="1" stroke-linejoin="round" fill="none" />
        <path d="M 750 500 C 500 450, 550 250, 600 200" stroke="#B026FF" stroke-width="1" stroke-linejoin="round" fill="none" />
        <path d="M 750 500 C 400 600, 550 250, 550 300" stroke="#B026FF" stroke-width="1" stroke-linejoin="round" fill="none" />
        <path d="M 750 500 C 1000 700, 900 400, 950 350" stroke="#B026FF" stroke-width="1" stroke-linejoin="round" fill="none" />

        
        <ellipse class="antera-neon" cx="800" cy="300" rx="8" ry="5" fill="#fcf75e" filter="url(#neonAmarillo)" />
        <ellipse class="antera-neon" cx="600" cy="200" rx="8" ry="5" fill="#fcf75e" filter="url(#neonAmarillo)" />
        <ellipse class="antera-neon" cx="550" cy="300" rx="8" ry="5" fill="#fcf75e" filter="url(#neonAmarillo)" />
        <ellipse class="antera-neon" cx="950" cy="350" rx="8" ry="5" fill="#fcf75e" filter="url(#neonAmarillo)" />
    </g>
    </g>

   

    <g id="flor3" class="flor">
    
    <g class="petalos-flor">
        <use class="petalo-neon" href="#petalo2" transform="translate(220,710) rotate(10)" filter="url(#neonPetaloMorado)" />
        <use class="petalo-neon" href="#petalo2" transform="translate(230,910) rotate(280)" filter="url(#neonPetaloMorado)" />
        <use class="petalo-neon" href="#petalo3" transform="translate(260,570) rotate(10)" filter="url(#neonPetaloMorado)" />
        <use class="petalo-neon" href="#petalo3" transform="translate(510,620) rotate(10) scale(-1 1)" filter="url(#neonPetaloMorado)" />
        <use class="petalo-neon" href="#petalo1" transform="translate(580,850) rotate(70) scale(-1 1)" filter="url(#neonPetaloMorado)" />
        <use class="petalo-neon" href="#petalo1" transform="translate(270,575) rotate(310) scale(-1 1)" filter="url(#neonPetaloMorado)" />
        <ellipse cx="350" cy="800" rx="8" ry="5" fill="#3B0161" />

    </g>

    <g class="detalles-flor">
        <path d="M 350 800 C 300 500, 100 600, 40 650" stroke="#B026FF" stroke-width="1" stroke-linejoin="round" fill="none" />
        <path d="M 350 800 C 350 400, 50 800, 20 700" stroke="#B026FF" stroke-width="1" stroke-linejoin="round" fill="none" />
        <path d="M 350 800 C 300 1300, 50 1000, 30 1000" stroke="#B026FF" stroke-width="1" stroke-linejoin="round" fill="none" />
        <path d="M 350 800 C 350 1500, 40 800, 40 1100" stroke="#B026FF" stroke-width="1" stroke-linejoin="round" fill="none" />

        
        <ellipse class="antera-neon" cx="40" cy="650" rx="8" ry="5" fill="#fcf75e" filter="url(#neonAmarillo)" />
        <ellipse class="antera-neon" cx="20" cy="700" rx="8" ry="5" fill="#fcf75e" filter="url(#neonAmarillo)" />
        <ellipse class="antera-neon" cx="30" cy="1000" rx="8" ry="5" fill="#fcf75e" filter="url(#neonAmarillo)" />
        <ellipse class="antera-neon" cx="40" cy="1100" rx="8" ry="5" fill="#fcf75e" filter="url(#neonAmarillo)" />
    </g>

    </g>
  

    <g id="flor2" class="flor">
    
    <g class="petalos-flor">
        <use class="petalo-neon" href="#petalo3" transform="translate(1010,530) rotate(10)" filter="url(#neonPetaloMorado)" />        
        <use class="petalo-neon" href="#petalo3" transform="translate(995,970) rotate(240)" filter="url(#neonPetaloMorado)" />
        <use class="petalo-neon" href="#petalo3" transform="translate(850,770) rotate(297)" filter="url(#neonPetaloMorado)" />
        <use class="petalo-neon" href="#petalo3" transform="translate(900,625) rotate(332)" filter="url(#neonPetaloMorado)" />
        <use class="petalo-neon" href="#petalo3" transform="translate(1030,520) rotate(312) scale(-1 1)" filter="url(#neonPetaloMorado)" />
        <use class="petalo-neon" href="#petalo3" transform="translate(1310,630) rotate(30) scale(-1 1)" filter="url(#neonPetaloMorado)" />
        <use class="petalo-neon" href="#petalo3" transform="translate(1250,575) rotate(10) scale(-1 1)" filter="url(#neonPetaloMorado)" />
        <ellipse cx="1100" cy="750" rx="8" ry="5" fill="#3B0161" />    

    </g>

    <g class="detalles-flor">
        <path d="M 1100 750 C 1500 700, 1450 400, 1400 400" stroke="#B026FF" stroke-width="1" stroke-linejoin="round" fill="none" />
        <path d="M 1100 750 C 1150 900, 1500 800, 1300 550" stroke="#B026FF" stroke-width="1" stroke-linejoin="round" fill="none" />
        <path d="M 1100 750 C 600 600, 1000 300, 1000 250" stroke="#B026FF" stroke-width="1" stroke-linejoin="round" fill="none" />
        <path d="M 1100 750 C 700 400, 1100 300, 1100 350" stroke="#B026FF" stroke-width="1" stroke-linejoin="round" fill="none" />


        <ellipse class="antera-neon" cx="1400" cy="400" rx="8" ry="5" fill="#fcf75e" filter="url(#neonAmarillo)" />
        <ellipse class="antera-neon" cx="1300" cy="550" rx="8" ry="5" fill="#fcf75e" filter="url(#neonAmarillo)" />
        <ellipse class="antera-neon" cx="1000" cy="250" rx="8" ry="5" fill="#fcf75e" filter="url(#neonAmarillo)" />
        <ellipse class="antera-neon" cx="1100" cy="350" rx="8" ry="5" fill="#fcf75e" filter="url(#neonAmarillo)" />
    </g>
    </g>

    <g id="flor1" class="flor">
    
    <g class="petalos-flor">
        <use class="petalo-neon" href="#petalo1" transform="translate(630,700) rotate(0)" filter="url(#neonPetaloMorado)"/>        
        <use class="petalo-neon" href="#petalo1" transform="translate(550,1017) rotate(270)" filter="url(#neonPetaloMorado)" />
        <use class="petalo-neon" href="#petalo1" transform="translate(520,905) rotate(300)" filter="url(#neonPetaloMorado)" />
        <use class="petalo-neon" href="#petalo1" transform="translate(695,675) rotate(315) scale(-1 1)" filter="url(#neonPetaloMorado)" />
        <use class="petalo-neon" href="#petalo1" transform="translate(990,900) rotate(60) scale(-1 1)" filter="url(#neonPetaloMorado)" />
        <use class="petalo-neon" href="#petalo1" transform="translate(930,755) rotate(20) scale(-1 1)" filter="url(#neonPetaloMorado)" />
        <ellipse cx="750" cy="900" rx="8" ry="5" fill="#3B0161" /> 

    </g>

    <g class="detalles-flor">
        <path d="M750 900 C 500 800, 570 700, 450 650" stroke="#B026FF" stroke-width="1" stroke-linejoin="round" fill="none" />
        <path d="M750 900 C 850 800, 700 700, 800 600" stroke="#B026FF" stroke-width="1" stroke-linejoin="round" fill="none" />
        <path d="M750 900 C 950 800, 1000 700, 990 700" stroke="#B026FF" stroke-width="1" stroke-linejoin="round" fill="none" />
        <path d="M750 900 C 800 800, 570 630, 750 570" stroke="#B026FF" stroke-width="1" stroke-linejoin="round" fill="none" />


        <ellipse class="antera-neon" cx="450" cy="650" rx="8" ry="5" fill="#fcf75e" filter="url(#neonAmarillo)" />
        <ellipse class="antera-neon" cx="800" cy="600" rx="8" ry="5" fill="#fcf75e" filter="url(#neonAmarillo)" />
        <ellipse class="antera-neon" cx="990" cy="700" rx="8" ry="5" fill="#fcf75e" filter="url(#neonAmarillo)" />
        <ellipse class="antera-neon" cx="750" cy="570" rx="8" ry="5" fill="#fcf75e" filter="url(#neonAmarillo)" />
    </g>

    </g>

</svg>
